<?xml version="1.0" encoding="utf-8"?>
<!-- Generator: Adobe Illustrator 20.1.0, SVG Export Plug-In . SVG Version: 6.00 Build 0)  -->
<svg version="1.1" id="Layer_1" xmlns="http://www.w3.org/2000/svg" xmlns:xlink="http://www.w3.org/1999/xlink" x="0px" y="0px"
	 viewBox="0 0 320 512" style="enable-background:new 0 0 320 512;" xml:space="preserve">
<style type="text/css">
	.st0{fill:#495565;}
</style>
<path class="st0" d="M224,416c0,8.8-7.2,16-16,16h-96c-8.8,0-16-7.2-16-16s7.2-16,16-16h96C216.8,400,224,407.2,224,416z M208,448
	h-96c-8.8,0-16,7.2-16,16s7.2,16,16,16c0,17.7,14.3,32,32,32h32c17.7,0,32-14.3,32-32c8.8,0,16-7.2,16-16S216.8,448,208,448z
	 M160,32c70.6,0,128,57.4,128,128c0,45.6-24,86.8-64.1,110.2l-15.9,9.2v18.4V352h-96v-54.2v-18.4l-15.9-9.3
	C55.9,246.8,32,205.6,32,160C32,89.4,89.4,32,160,32 M160,0C71.6,0,0,71.6,0,160c0,59.1,32.4,110.1,80,137.8V352
	c0,17.7,14.3,32,32,32h96c17.7,0,32-14.3,32-32v-54.2c47.6-27.7,80-78.8,80-137.8C320,71.6,248.4,0,160,0L160,0z"/>
</svg>
