<?xml version="1.0" encoding="utf-8"?>
<!-- Generator: Adobe Illustrator 20.1.0, SVG Export Plug-In . SVG Version: 6.00 Build 0)  -->
<svg version="1.1" id="Layer_1" xmlns="http://www.w3.org/2000/svg" xmlns:xlink="http://www.w3.org/1999/xlink" x="0px" y="0px"
	 viewBox="0 0 512 512" style="enable-background:new 0 0 512 512;" xml:space="preserve">
<style type="text/css">
	.st0{fill:#778DA8;}
</style>
<path class="st0" d="M256,64c-70.7,0-128,57.3-128,128c0,64,64,129,64,192h128c0-65,64-128,64-192C384,121.3,326.7,64,256,64z
	 M323.6,272.9c-12.8,25.3-25.8,51.3-31.9,79.1h-71.5c-6.2-26.9-18.9-52.5-31.4-77.5C174,244.7,160,216.6,160,192
	c0-52.9,43.1-96,96-96s96,43.1,96,96C352,216.3,338.2,243.8,323.6,272.9z M320,464c0,8.8-7.2,16-16,16h-2.9
	c-6.6,18.6-24.2,32-45.1,32s-38.5-13.4-45.1-32H208c-8.8,0-16-7.2-16-16s7.2-16,16-16h96C312.8,448,320,455.2,320,464z M320,416
	c0,8.8-7.2,16-16,16h-96c-8.8,0-16-7.2-16-16s7.2-16,16-16h96C312.8,400,320,407.2,320,416z M97.7,82.1l28.8,16.7
	c-6.2,8.7-11.7,17.8-16.1,27.7l-28.7-16.6L97.7,82.1z M256,32c-5.5,0-10.7,1.1-16,1.6V0h32v33.6C266.7,33.1,261.5,32,256,32z
	 M162.8,62.5l-16.7-28.8l27.8-16l16.6,28.7C180.6,50.9,171.4,56.3,162.8,62.5z M401.6,126.4c-4.4-9.8-9.9-19-16.1-27.7l28.8-16.7
	l16,27.8L401.6,126.4z M349.2,62.5c-8.6-6.2-17.8-11.6-27.6-16.1l16.6-28.7l27.7,16L349.2,62.5z M97.7,208H64v-32h33.6
	c-0.6,5.3-1.6,10.5-1.6,16C96,197.4,97.1,202.7,97.7,208z M448,176v32h-33.7c0.6-5.3,1.7-10.6,1.7-16c0-5.5-1.1-10.7-1.6-16H448z
	 M401.2,257.4l29.1,16.8l-16,27.7l-26.2-15.1C392.8,277.1,397.2,267.3,401.2,257.4z M110.7,257.4c4,9.9,8.3,19.8,13,29.4l-26,15
	l-16-27.7L110.7,257.4z"/>
</svg>
